<?xml version="1.0" standalone="no"?>
<!DOCTYPE svg PUBLIC "-//W3C//DTD SVG 20010904//EN"
 "http://www.w3.org/TR/2001/REC-SVG-20010904/DTD/svg10.dtd">
<svg version="1.0" xmlns="http://www.w3.org/2000/svg"
 width="2000.000000pt" height="2000.000000pt" viewBox="0 0 2000.000000 2000.000000"
 preserveAspectRatio="xMidYMid meet">
<metadata>
Created by potrace 1.14, written by Peter Selinger 2001-2017
</metadata>
<g transform="translate(0.000000,2000.000000) scale(0.100000,-0.100000)"
fill="#000000" stroke="none">
<path d="M9747 19984 c-1 -1 -81 -5 -177 -9 -96 -4 -193 -8 -215 -10 -22 -1
-85 -6 -139 -9 -55 -4 -113 -9 -130 -11 -17 -2 -60 -7 -96 -10 -93 -8 -369
-43 -479 -61 -51 -8 -109 -16 -128 -19 -20 -2 -43 -7 -52 -9 -9 -3 -34 -7 -56
-11 -22 -3 -53 -8 -70 -11 -29 -4 -256 -49 -305 -60 -14 -3 -34 -7 -45 -9
-148 -33 -447 -106 -545 -135 -36 -11 -105 -31 -155 -45 -330 -96 -870 -294
-1170 -430 -16 -8 -82 -37 -145 -65 -443 -199 -975 -498 -1400 -785 -215 -146
-264 -179 -270 -185 -3 -3 -68 -52 -145 -109 -121 -90 -370 -285 -385 -301 -3
-3 -32 -27 -65 -55 -93 -78 -117 -98 -140 -120 -12 -11 -39 -35 -61 -54 -220
-190 -598 -567 -829 -826 -49 -55 -92 -102 -95 -105 -3 -3 -25 -30 -50 -60
-43 -52 -83 -100 -105 -124 -20 -22 -194 -244 -271 -346 -536 -709 -976 -1489
-1304 -2310 -42 -107 -85 -217 -95 -245 -9 -27 -21 -59 -26 -70 -12 -27 -98
-282 -111 -325 -5 -19 -20 -66 -33 -105 -38 -118 -127 -436 -156 -563 -6 -26
-12 -54 -15 -62 -10 -39 -73 -318 -77 -345 -13 -69 -26 -142 -31 -163 -3 -13
-15 -81 -26 -150 -12 -70 -23 -138 -26 -152 -2 -14 -13 -95 -24 -180 -11 -85
-22 -168 -25 -185 -2 -16 -7 -61 -10 -100 -3 -38 -8 -86 -10 -105 -3 -19 -7
-71 -11 -115 -3 -44 -7 -96 -9 -115 -20 -209 -28 -1042 -12 -1275 21 -307 27
-385 32 -415 2 -14 7 -54 10 -90 6 -65 11 -113 20 -180 3 -19 7 -53 10 -75 15
-126 61 -412 90 -565 144 -749 368 -1466 677 -2170 129 -293 428 -870 551
-1063 20 -32 37 -59 37 -61 0 -13 270 -426 393 -601 106 -150 425 -566 457
-595 3 -3 28 -32 55 -65 81 -97 89 -107 100 -119 302 -342 685 -728 920 -927
22 -19 45 -39 50 -45 18 -20 208 -178 335 -280 223 -179 617 -466 769 -559 9
-5 41 -26 71 -46 30 -20 120 -76 200 -124 80 -49 161 -99 181 -112 19 -12 38
-23 41 -23 3 0 43 -22 89 -48 160 -92 465 -249 675 -348 119 -55 512 -224 523
-224 4 0 22 -7 38 -15 60 -30 446 -167 653 -232 311 -97 794 -222 1003 -258
18 -4 50 -10 72 -15 49 -11 267 -49 315 -56 19 -2 46 -6 60 -9 33 -6 66 -11
270 -40 14 -2 56 -6 93 -10 37 -3 76 -8 85 -10 9 -1 53 -6 97 -10 44 -4 91 -8
105 -11 14 -2 72 -6 130 -10 58 -3 121 -8 140 -10 218 -22 1030 -22 1275 0 22
2 81 7 130 11 127 9 183 14 235 20 25 3 68 7 95 10 122 14 222 26 246 30 9 2
40 6 70 10 30 3 77 10 104 15 28 5 68 12 90 15 48 6 77 12 207 35 32 6 70 13
85 16 175 32 643 143 802 191 47 14 90 26 97 27 8 1 17 5 20 9 4 4 15 7 25 7
22 0 483 152 644 213 143 54 412 163 509 207 39 17 86 38 105 47 203 91 656
318 706 353 6 4 46 26 90 50 44 23 87 48 95 54 8 6 31 20 50 30 211 115 905
581 988 663 7 7 16 13 20 13 4 0 21 13 38 28 17 15 46 38 64 52 76 58 321 260
340 280 3 3 18 16 34 28 28 21 129 112 281 252 95 88 424 418 505 506 36 39
94 104 130 144 36 41 70 78 75 84 130 138 516 631 666 851 30 44 56 82 59 85
11 10 229 349 299 464 264 432 534 974 721 1441 17 44 36 89 41 100 100 228
357 1049 404 1293 1 9 8 37 15 62 7 25 14 56 16 70 3 14 7 33 10 42 3 10 8 30
10 45 3 16 18 93 34 173 39 193 68 361 85 490 3 25 8 56 10 70 4 24 7 45 20
160 4 30 8 66 10 80 2 14 7 56 10 95 4 38 8 76 10 85 2 9 6 61 10 115 4 55 8
118 10 140 15 184 19 349 19 720 0 237 -3 480 -8 540 -16 238 -24 343 -31 415
-3 25 -7 70 -10 100 -3 30 -8 66 -10 80 -2 14 -7 53 -10 87 -3 34 -8 71 -10
83 -2 12 -6 41 -9 64 -3 22 -12 84 -20 136 -8 52 -18 113 -21 135 -3 23 -8 52
-10 65 -3 14 -7 39 -10 55 -3 17 -10 53 -15 80 -15 72 -19 95 -26 135 -25 144
-133 578 -201 810 -25 85 -46 160 -48 165 -1 6 -5 17 -8 25 -3 8 -23 67 -43
130 -64 201 -153 442 -252 685 -185 452 -410 898 -675 1340 -228 380 -508 782
-769 1105 -38 47 -74 92 -81 100 -24 30 -172 205 -177 210 -3 3 -43 48 -90
100 -46 52 -107 120 -134 150 -92 99 -469 473 -561 556 -165 148 -243 217
-330 289 -33 28 -62 52 -65 55 -11 12 -250 200 -335 264 -49 37 -97 73 -106
80 -114 92 -706 486 -730 486 -5 0 -9 4 -9 9 0 5 -8 11 -17 14 -10 4 -36 17
-58 30 -76 47 -220 130 -285 165 -36 19 -96 51 -135 72 -143 78 -576 290 -590
290 -2 0 -32 13 -67 29 -123 58 -383 162 -623 251 -127 47 -394 136 -495 165
-25 7 -101 30 -170 49 -121 35 -265 74 -303 82 -10 2 -27 6 -37 9 -10 3 -27 8
-37 10 -10 2 -77 17 -150 34 -150 34 -364 79 -420 86 -21 3 -58 10 -83 15 -25
5 -79 14 -120 20 -41 7 -86 13 -100 15 -14 3 -45 7 -70 10 -25 3 -56 7 -70 10
-28 5 -76 11 -160 20 -30 3 -71 8 -90 10 -171 21 -399 39 -650 51 -122 6 -698
12 -703 8z m688 -198 c195 -10 297 -16 355 -22 30 -2 80 -7 110 -9 30 -3 73
-7 95 -10 22 -2 65 -7 95 -10 61 -6 105 -11 166 -20 23 -3 59 -7 80 -10 21 -2
71 -9 109 -15 39 -6 81 -13 95 -15 65 -9 117 -18 135 -21 11 -2 31 -6 45 -9
14 -2 72 -13 130 -24 251 -47 567 -122 815 -192 151 -43 447 -135 480 -148 11
-5 40 -16 65 -24 114 -40 359 -130 397 -148 24 -10 46 -19 49 -19 3 0 20 -6
37 -14 18 -8 77 -33 132 -57 190 -79 391 -173 610 -284 282 -143 369 -193 778
-439 52 -32 345 -227 442 -295 305 -214 705 -539 1005 -816 169 -156 566 -562
680 -695 12 -14 31 -36 43 -50 12 -14 58 -68 102 -120 44 -52 82 -97 85 -100
3 -3 62 -77 132 -165 169 -216 297 -393 445 -615 68 -102 129 -194 137 -205
26 -40 223 -372 273 -460 183 -327 329 -628 483 -990 4 -11 15 -36 23 -55 34
-79 127 -323 167 -435 23 -66 46 -129 50 -140 8 -18 60 -185 125 -395 25 -80
148 -555 158 -610 3 -14 19 -90 35 -170 17 -80 33 -161 36 -180 9 -54 16 -94
21 -110 2 -8 7 -37 10 -65 4 -27 8 -57 10 -65 2 -8 7 -35 10 -60 3 -25 8 -58
11 -73 13 -82 44 -325 49 -392 4 -42 8 -84 10 -93 3 -16 10 -98 20 -232 27
-348 27 -1145 0 -1420 -2 -19 -6 -72 -9 -118 -4 -46 -8 -100 -10 -120 -3 -20
-7 -64 -11 -97 -10 -102 -37 -312 -60 -470 -10 -65 -45 -262 -66 -370 -28
-142 -24 -128 -64 -310 -115 -522 -363 -1275 -574 -1740 -10 -22 -34 -74 -52
-115 -37 -84 -283 -576 -330 -660 -16 -30 -42 -75 -57 -100 -14 -25 -27 -47
-27 -50 0 -3 -8 -16 -16 -30 -52 -83 -99 -162 -99 -166 0 -3 -18 -32 -40 -65
-22 -33 -40 -63 -40 -65 0 -3 -9 -17 -19 -32 -10 -15 -77 -114 -147 -221 -71
-106 -138 -206 -149 -221 -70 -99 -127 -175 -180 -245 -34 -44 -78 -102 -99
-129 -121 -159 -365 -445 -541 -636 -151 -163 -491 -497 -630 -619 -33 -29
-76 -67 -95 -85 -119 -110 -539 -448 -666 -536 -73 -50 -220 -155 -224 -160
-6 -6 -346 -229 -440 -287 -117 -73 -369 -217 -515 -295 -153 -82 -524 -263
-650 -318 -66 -28 -133 -58 -150 -65 -93 -43 -457 -182 -645 -246 -179 -62
-551 -175 -639 -194 -9 -2 -68 -17 -132 -34 -63 -16 -126 -32 -140 -35 -13 -3
-85 -18 -159 -35 -74 -16 -147 -32 -163 -35 -15 -2 -35 -7 -45 -10 -9 -3 -35
-7 -57 -11 -22 -3 -87 -14 -145 -25 -58 -10 -125 -21 -150 -24 -25 -4 -70 -10
-100 -16 -30 -5 -79 -12 -109 -15 -30 -4 -61 -8 -70 -10 -9 -1 -43 -6 -76 -9
-33 -4 -73 -9 -90 -11 -61 -8 -198 -20 -330 -30 -49 -3 -110 -8 -135 -10 -294
-24 -992 -24 -1260 0 -25 2 -88 7 -140 10 -52 3 -108 8 -125 10 -16 2 -66 6
-110 10 -44 3 -87 8 -95 10 -8 2 -40 7 -70 10 -93 10 -286 36 -370 50 -14 2
-42 7 -64 10 -21 4 -48 9 -60 11 -11 2 -37 7 -56 9 -19 3 -46 8 -60 11 -14 3
-36 8 -50 10 -24 4 -104 20 -145 28 -149 32 -224 48 -295 66 -47 11 -96 23
-110 26 -265 55 -1059 315 -1325 434 -11 5 -65 28 -120 51 -279 116 -712 328
-940 459 -22 13 -65 37 -95 53 -265 146 -749 466 -1045 690 -89 68 -317 248
-325 256 -3 4 -43 38 -90 77 -47 39 -94 80 -106 90 -12 11 -49 44 -84 74 -176
154 -552 524 -705 693 -44 49 -93 104 -110 122 -164 178 -452 538 -647 810
-114 159 -323 471 -378 566 -54 92 -97 165 -112 187 -10 15 -21 34 -25 42 -4
8 -30 56 -58 105 -195 339 -408 785 -560 1170 -26 66 -51 129 -56 140 -41 94
-193 550 -258 775 -70 245 -153 582 -184 750 -3 14 -17 88 -32 165 -14 77 -28
156 -31 175 -2 19 -11 73 -19 120 -8 47 -17 105 -20 130 -4 25 -8 56 -10 70
-2 14 -7 54 -10 90 -4 36 -9 72 -10 80 -2 13 -8 65 -21 195 -1 17 -6 66 -9
110 -4 44 -8 98 -10 120 -28 287 -27 1062 0 1420 8 101 16 201 19 230 2 17 6
62 10 100 10 99 18 168 41 335 9 63 20 138 25 165 5 28 12 67 15 88 5 35 50
279 59 322 2 11 14 65 25 120 12 55 24 109 26 120 3 11 7 29 9 40 8 41 108
422 128 490 12 39 22 72 23 75 15 66 136 433 147 448 6 6 8 12 4 12 -3 0 1 17
10 38 8 20 22 57 31 82 18 56 158 410 183 465 10 22 36 81 58 130 92 207 225
479 330 675 114 212 337 586 429 717 23 35 43 65 43 67 0 16 337 480 470 646
41 52 82 103 90 114 8 11 31 38 50 60 19 23 60 70 89 106 30 36 59 70 65 75 6
6 40 44 76 85 104 120 191 211 415 435 187 187 274 269 435 410 25 22 47 42
50 45 3 3 32 27 65 55 33 27 62 52 65 55 8 10 301 243 345 276 22 16 42 31 45
34 6 7 204 151 290 212 139 97 438 292 535 348 17 10 91 53 165 97 314 185
886 469 1135 564 28 11 59 24 70 29 72 33 116 50 128 50 7 0 17 3 21 8 4 4 11
7 14 8 4 0 18 5 32 11 344 140 1016 341 1430 428 64 13 382 75 410 79 19 3 46
8 60 10 27 5 86 14 135 21 17 2 64 9 105 15 96 13 132 18 200 25 30 3 66 8 80
10 14 3 57 7 95 11 39 3 86 7 105 9 19 2 76 7 125 10 50 4 106 8 125 11 19 2
130 7 245 10 116 4 211 7 212 8 5 4 509 -3 618 -8z"/>
<path d="M9727 19584 c-1 -1 -78 -5 -172 -9 -239 -11 -343 -17 -455 -30 -19
-2 -64 -7 -100 -10 -36 -4 -78 -9 -95 -11 -16 -2 -52 -6 -80 -9 -75 -9 -322
-44 -385 -55 -30 -5 -68 -12 -85 -15 -16 -2 -41 -7 -55 -10 -64 -13 -137 -27
-160 -30 -138 -21 -552 -122 -825 -201 -315 -92 -530 -166 -859 -296 -334
-132 -778 -340 -1046 -490 -63 -36 -135 -76 -160 -90 -216 -121 -511 -309
-785 -500 -97 -67 -411 -305 -480 -362 -16 -14 -35 -29 -40 -33 -20 -15 -260
-218 -276 -233 -8 -8 -53 -49 -100 -91 -340 -309 -627 -607 -929 -964 -23 -27
-49 -59 -59 -70 -357 -438 -703 -948 -976 -1440 -72 -129 -315 -607 -315 -619
0 -3 -15 -38 -34 -78 -54 -117 -121 -274 -169 -398 -46 -118 -59 -151 -62
-160 -1 -3 -5 -12 -8 -20 -27 -64 -126 -353 -180 -525 -91 -290 -212 -771
-251 -999 -3 -16 -10 -52 -15 -80 -12 -60 -18 -89 -31 -176 -6 -36 -13 -76
-15 -90 -4 -23 -9 -54 -20 -132 -12 -88 -34 -270 -40 -323 -3 -33 -8 -73 -10
-90 -2 -16 -7 -73 -10 -125 -4 -52 -9 -108 -11 -125 -26 -210 -25 -1211 1
-1420 2 -16 7 -68 10 -115 3 -47 8 -101 10 -120 8 -65 15 -125 20 -182 3 -31
7 -65 9 -75 2 -10 9 -61 16 -113 7 -52 14 -104 16 -115 2 -11 6 -38 9 -60 3
-22 7 -51 10 -65 3 -14 8 -41 11 -60 8 -50 42 -232 60 -315 8 -38 17 -81 19
-95 3 -14 7 -36 10 -50 14 -70 118 -475 155 -601 111 -375 282 -848 415 -1144
7 -16 34 -77 60 -135 51 -115 206 -428 275 -555 55 -103 132 -241 156 -282 52
-86 89 -150 100 -168 57 -100 263 -413 368 -559 39 -54 78 -108 86 -120 21
-31 233 -310 239 -316 4 -3 33 -39 66 -80 33 -41 69 -86 81 -100 225 -262 213
-249 382 -428 184 -196 455 -460 618 -602 146 -127 256 -220 344 -290 58 -47
110 -89 116 -95 7 -5 24 -19 40 -30 15 -11 48 -36 73 -55 222 -172 591 -420
886 -598 122 -73 145 -86 370 -210 128 -70 644 -322 660 -322 2 0 32 -13 67
-29 183 -84 531 -216 823 -312 386 -127 988 -278 1330 -333 17 -2 73 -11 125
-20 91 -14 132 -20 203 -31 33 -5 155 -20 240 -29 26 -4 67 -9 91 -12 24 -3
66 -7 93 -9 60 -3 205 -15 257 -20 230 -23 1025 -23 1281 0 22 2 81 6 130 10
50 3 108 8 130 10 22 3 67 7 100 10 33 3 74 7 90 10 17 2 53 7 80 10 28 3 79
10 115 15 36 5 85 11 110 14 25 3 54 8 65 10 11 2 42 7 68 10 26 4 71 11 100
17 29 6 66 13 82 15 17 3 77 14 134 25 57 12 116 23 130 25 14 3 34 7 43 10
10 3 30 7 45 10 100 17 529 128 693 179 47 15 99 30 115 35 17 4 68 20 115 36
47 15 87 28 90 29 3 1 12 4 20 8 8 3 53 19 100 35 127 45 281 102 315 117 17
8 77 33 134 55 100 40 208 86 319 136 28 13 53 24 55 23 14 -3 652 331 795
416 9 6 40 23 67 39 177 103 549 346 713 465 167 122 462 348 482 371 3 3 46
39 95 80 395 328 842 773 1150 1144 22 27 47 56 56 65 32 33 219 271 331 422
111 149 343 486 422 614 20 33 41 67 46 75 81 130 260 444 312 545 140 274
244 489 294 607 13 32 35 81 48 110 115 256 284 730 386 1083 43 150 121 443
134 507 3 13 7 32 10 43 4 18 39 181 51 244 8 36 32 169 39 211 4 19 11 58 16
85 10 56 14 83 36 235 18 131 22 161 29 230 3 30 8 71 11 90 6 47 15 139 29
335 28 356 27 1057 0 1415 -6 75 -16 193 -20 225 -2 17 -6 62 -10 100 -4 39
-8 81 -10 95 -2 14 -6 43 -9 65 -26 203 -77 522 -101 635 -7 32 -14 67 -20
103 -3 15 -12 60 -21 100 -15 66 -26 119 -38 174 -17 79 -119 450 -174 633
-78 256 -266 763 -362 975 -10 22 -39 87 -65 145 -247 553 -639 1219 -1014
1725 -138 185 -382 491 -456 571 -5 6 -37 42 -70 79 -53 61 -82 93 -188 209
-188 204 -552 552 -782 747 -11 9 -42 36 -69 59 -257 219 -675 526 -991 727
-245 156 -665 400 -665 386 0 -3 -8 1 -17 10 -49 43 -707 348 -958 444 -49 18
-99 38 -110 42 -145 61 -486 175 -750 251 -416 120 -805 204 -1265 275 -14 2
-63 9 -110 15 -131 17 -163 21 -190 25 -14 2 -59 7 -100 10 -41 3 -86 8 -100
10 -14 2 -70 7 -125 10 -55 4 -116 8 -135 10 -131 12 -902 28 -913 19z"/>
</g>
</svg>
